<svg xmlns="http://www.w3.org/2000/svg" width="24" height="24" fill="currentColor" viewBox="0 0 24 24">
  <path d="m6.366 13.31 6.292 6.463c.257.264.38.572.37.924a1.336 1.336 0 0 1-1.3 1.303 1.166 1.166 0 0 1-.9-.38l-8.475-8.705a1.161 1.161 0 0 1-.273-.429 1.496 1.496 0 0 1-.08-.495c0-.175.027-.34.08-.494a1.16 1.16 0 0 1 .273-.429l8.475-8.705c.236-.242.53-.363.883-.363s.658.12.915.363a1.3 1.3 0 0 1 .385.94c0 .362-.128.675-.385.94l-6.26 6.43h14.35c.364 0 .669.126.915.379.246.252.369.566.369.94 0 .373-.123.686-.37.94-.245.252-.55.378-.914.378H6.366Z"/>
</svg>
