<svg xmlns="http://www.w3.org/2000/svg" width="24" height="24" fill="currentColor" viewBox="0 0 24 24">
  <path d="M10.672 17.634V3.284c0-.364.127-.669.38-.915.252-.246.566-.369.94-.369.373 0 .686.123.939.37.253.245.38.55.38.914v14.35l6.462-6.292a1.23 1.23 0 0 1 .924-.37 1.336 1.336 0 0 1 1.302 1.3c.011.343-.115.643-.38.9l-8.704 8.475a1.16 1.16 0 0 1-.43.273c-.153.053-.318.08-.494.08s-.34-.027-.494-.08a1.16 1.16 0 0 1-.43-.273l-8.705-8.475A1.181 1.181 0 0 1 2 12.289c0-.353.12-.658.362-.915.264-.257.578-.385.94-.385a1.3 1.3 0 0 1 .94.385l6.43 6.26Z"/>
</svg>
