<svg xmlns="http://www.w3.org/2000/svg" width="24" height="24" fill="currentColor" viewBox="0 0 24 24">
  <path d="m10.69 6.366-6.464 6.292c-.264.257-.571.38-.923.37A1.336 1.336 0 0 1 2 11.727c-.01-.343.116-.643.38-.9l8.705-8.475a1.16 1.16 0 0 1 .429-.273 1.51 1.51 0 0 1 .494-.08c.176 0 .341.027.495.08.154.054.297.145.429.273l8.705 8.475c.242.236.363.53.363.883s-.121.658-.363.915a1.301 1.301 0 0 1-.94.385 1.3 1.3 0 0 1-.94-.385l-6.43-6.26v14.35c0 .364-.126.669-.379.915s-.566.369-.94.369c-.373 0-.687-.123-.94-.37a1.226 1.226 0 0 1-.379-.914V6.366Z"/>
</svg>
