<svg xmlns="http://www.w3.org/2000/svg" width="24" height="24" fill="currentColor" viewBox="0 0 24 24">
  <path d="M17.634 13.328H3.284c-.364 0-.669-.127-.915-.38a1.294 1.294 0 0 1-.369-.94c0-.373.123-.686.37-.94.245-.252.55-.378.914-.378h14.35l-6.292-6.464a1.225 1.225 0 0 1-.37-.923A1.336 1.336 0 0 1 12.273 2c.343-.01.643.116.9.38l8.475 8.705c.128.132.22.275.273.429.053.154.08.319.08.495 0 .175-.027.34-.08.494a1.16 1.16 0 0 1-.273.429l-8.475 8.705c-.236.242-.53.363-.883.363a1.29 1.29 0 0 1-.915-.363 1.301 1.301 0 0 1-.385-.94c0-.362.128-.675.385-.94l6.26-6.43Z"/>
</svg>
