<svg xmlns="http://www.w3.org/2000/svg" width="24" height="24" fill="currentColor" viewBox="0 0 24 24">
  <path d="M12.125 20c-2.233 0-4.133-.775-5.7-2.325-1.567-1.55-2.35-3.442-2.35-5.675v-.175l-.9.9a.948.948 0 0 1-.7.275.948.948 0 0 1-.7-.275.948.948 0 0 1-.275-.7.95.95 0 0 1 .275-.7l2.6-2.6c.2-.2.433-.3.7-.3.267 0 .5.1.7.3l2.6 2.6a.948.948 0 0 1 .275.7.948.948 0 0 1-.275.7.948.948 0 0 1-.7.275.948.948 0 0 1-.7-.275l-.9-.9V12c0 1.667.587 3.083 1.763 4.25C9.011 17.417 10.442 18 12.125 18c.267 0 .53-.017.787-.05.259-.033.513-.092.763-.175.283-.083.55-.075.8.025s.442.275.575.525c.133.267.146.53.037.788a.867.867 0 0 1-.587.512 6.36 6.36 0 0 1-1.175.288c-.4.058-.8.087-1.2.087Zm-.1-14c-.267 0-.53.017-.787.05a4.042 4.042 0 0 0-.763.175 1.231 1.231 0 0 1-.813-.025 1.097 1.097 0 0 1-.587-.525.849.849 0 0 1-.037-.763A.862.862 0 0 1 9.6 4.4c.4-.133.8-.233 1.2-.3a7.4 7.4 0 0 1 1.225-.1c2.233 0 4.133.775 5.7 2.325 1.567 1.55 2.35 3.442 2.35 5.675v.175l.9-.9a.948.948 0 0 1 .7-.275.95.95 0 0 1 .7.275.948.948 0 0 1 .275.7.948.948 0 0 1-.275.7l-2.6 2.6c-.2.2-.433.3-.7.3a.96.96 0 0 1-.7-.3l-2.6-2.6a.948.948 0 0 1-.275-.7.95.95 0 0 1 .275-.7.948.948 0 0 1 .7-.275.95.95 0 0 1 .7.275l.9.9V12c0-1.667-.587-3.083-1.762-4.25C15.137 6.583 13.707 6 12.024 6Z"/>
</svg>
