<svg xmlns="http://www.w3.org/2000/svg" width="24" height="24" fill="currentColor" viewBox="0 0 24 24">
  <path d="M7 15h10a.97.97 0 0 0 .712-.287A.968.968 0 0 0 18 14a.968.968 0 0 0-.288-.713A.968.968 0 0 0 17 13H7a.967.967 0 0 0-.713.287A.968.968 0 0 0 6 14c0 .283.096.52.287.713.192.191.43.287.713.287Zm0-3h10a.97.97 0 0 0 .712-.287A.968.968 0 0 0 18 11a.968.968 0 0 0-.288-.713A.968.968 0 0 0 17 10H7a.967.967 0 0 0-.713.287A.968.968 0 0 0 6 11c0 .283.096.52.287.713.192.191.43.287.713.287Zm0-3h10a.97.97 0 0 0 .712-.287A.967.967 0 0 0 18 8a.967.967 0 0 0-.288-.713A.968.968 0 0 0 17 7H7a.968.968 0 0 0-.713.287A.968.968 0 0 0 6 8c0 .283.096.52.287.713.192.191.43.287.713.287ZM4 19c-.55 0-1.02-.196-1.413-.587A1.926 1.926 0 0 1 2 17V5c0-.55.196-1.02.587-1.413A1.926 1.926 0 0 1 4 3h16c.55 0 1.02.196 1.413.587.39.393.587.863.587 1.413v15.575c0 .45-.204.762-.613.938-.408.174-.77.104-1.087-.213L18 19H4Zm14.85-2L20 18.125V5H4v12h14.85Z"/>
</svg>
