<svg xmlns="http://www.w3.org/2000/svg" width="24" height="24" fill="currentColor" viewBox="0 0 24 24">
  <path d="m12 14.13-7.453 7.452c-.279.279-.633.418-1.064.418-.431 0-.786-.14-1.065-.418-.279-.28-.418-.634-.418-1.065 0-.43.14-.786.418-1.064L9.87 12 2.418 4.548C2.139 4.268 2 3.914 2 3.483c0-.431.14-.786.418-1.065C2.697 2.14 3.052 2 3.483 2c.43 0 .785.14 1.064.418L12 9.871l7.452-7.453c.279-.279.634-.418 1.065-.418.43 0 .785.14 1.064.418.28.28.419.634.419 1.065 0 .43-.14.786-.419 1.065L14.13 12l7.452 7.453c.28.278.419.633.419 1.064 0 .431-.14.786-.419 1.065-.279.279-.633.418-1.064.418-.431 0-.786-.14-1.065-.418L12 14.129Z"/>
</svg>
