<svg xmlns="http://www.w3.org/2000/svg" width="24" height="24" fill="currentColor" viewBox="0 0 24 24">
  <path d="M4.222 19.778h1.584l10.86-10.861-1.583-1.584-10.86 10.861v1.584ZM3.112 22c-.316 0-.58-.107-.793-.32A1.075 1.075 0 0 1 2 20.89v-2.695a2.194 2.194 0 0 1 .639-1.555l14.028-14c.222-.204.467-.361.736-.472a2.19 2.19 0 0 1 .847-.167c.296 0 .583.056.861.167.278.11.519.277.722.5l1.528 1.555c.222.204.384.445.486.722a2.405 2.405 0 0 1 0 1.681 2.081 2.081 0 0 1-.486.736l-14 14A2.194 2.194 0 0 1 5.805 22H3.112Zm12.75-13.861-.779-.806 1.584 1.584-.806-.778Z"/>
</svg>
