<svg xmlns="http://www.w3.org/2000/svg" width="24" height="24" fill="currentColor" viewBox="0 0 24 24">
  <path d="M3.429 19H20.57c.405 0 .744.137 1.018.41.274.274.411.614.411 1.019 0 .404-.137.744-.41 1.017a1.384 1.384 0 0 1-1.019.411H3.43c-.405 0-.744-.137-1.018-.41A1.382 1.382 0 0 1 2 20.428c0-.405.137-.744.41-1.018a1.386 1.386 0 0 1 1.019-.411Zm.535-5.071 6.857-10.286c.143-.214.316-.375.518-.482A1.39 1.39 0 0 1 12 3c.238 0 .458.053.66.16.203.107.376.268.519.482l6.857 10.286c.333.476.357.964.071 1.464s-.714.75-1.286.75H5.18c-.572 0-1-.25-1.286-.75-.286-.5-.262-.988.071-1.464Zm3.822-.643h8.428L12 7l-4.214 6.286Z"/>
</svg>
