<svg xmlns="http://www.w3.org/2000/svg" width="24" height="24" fill="currentColor" viewBox="0 0 24 24">
  <path d="M4.222 22a2.14 2.14 0 0 1-1.57-.653A2.14 2.14 0 0 1 2 19.777V4.223c0-.61.218-1.134.653-1.57A2.14 2.14 0 0 1 4.223 2h6.666c.315 0 .579.106.792.32.213.212.319.476.319.791 0 .315-.107.579-.32.792-.212.213-.476.32-.791.32H4.222v15.555h15.556V13.11c0-.315.106-.579.32-.792a1.07 1.07 0 0 1 .79-.319c.316 0 .58.107.793.32.212.212.319.476.319.791v6.667a2.14 2.14 0 0 1-.653 1.57 2.14 2.14 0 0 1-1.57.652H4.223ZM19.778 5.778l-9.556 9.555a1.054 1.054 0 0 1-.778.306c-.314 0-.574-.102-.777-.306a1.053 1.053 0 0 1-.306-.777c0-.315.102-.574.306-.778l9.555-9.556h-2.889a1.07 1.07 0 0 1-.791-.32 1.075 1.075 0 0 1-.32-.79c0-.316.107-.58.32-.793.213-.213.476-.319.791-.319H22v6.667c0 .314-.107.578-.32.791-.212.213-.476.32-.791.32-.315 0-.579-.107-.792-.32a1.075 1.075 0 0 1-.32-.791v-2.89Z"/>
</svg>
