<svg xmlns="http://www.w3.org/2000/svg" width="24" height="24" fill="currentColor" viewBox="0 0 24 24">
  <path d="M12 16.469c-.167 0-.323-.026-.469-.078a1.097 1.097 0 0 1-.406-.266l-4.5-4.5c-.25-.25-.37-.542-.36-.875.011-.333.13-.625.36-.875.25-.25.547-.38.89-.39.344-.011.641.109.891.359l2.344 2.344V3.25c0-.354.12-.651.36-.89.239-.24.536-.36.89-.36s.651.12.89.36c.24.239.36.536.36.89v8.938l2.344-2.344c.25-.25.547-.37.89-.36.344.01.641.141.891.391.23.25.349.542.36.875.01.333-.11.625-.36.875l-4.5 4.5c-.125.125-.26.213-.406.266a1.384 1.384 0 0 1-.469.078ZM4.5 22a2.407 2.407 0 0 1-1.766-.734A2.407 2.407 0 0 1 2 19.5V17c0-.354.12-.651.36-.89.239-.24.536-.36.89-.36s.651.12.89.36c.24.239.36.536.36.89v2.5h15V17c0-.354.12-.651.36-.89.239-.24.536-.36.89-.36s.651.12.89.36c.24.239.36.536.36.89v2.5a2.41 2.41 0 0 1-.734 1.766c-.49.49-1.078.734-1.766.734h-15Z"/>
</svg>
