<svg xmlns="http://www.w3.org/2000/svg" width="24" height="24" fill="currentColor" viewBox="0 0 24 24">
  <path d="M4.5 22c-.688 0-1.276-.252-1.766-.754A2.507 2.507 0 0 1 2 19.432v-2.569c0-.363.12-.668.36-.914.239-.246.536-.37.89-.37s.651.123.89.37c.24.246.36.55.36.914v2.569h15v-2.569c0-.363.12-.668.36-.914.239-.246.536-.37.89-.37s.651.123.89.37c.24.246.36.55.36.914v2.569c0 .706-.245 1.31-.734 1.814-.49.503-1.078.754-1.766.754h-15Zm6.25-15.602L8.406 8.806c-.25.257-.547.38-.89.369a1.259 1.259 0 0 1-.891-.401 1.374 1.374 0 0 1-.36-.9c-.01-.342.11-.641.36-.898l4.5-4.623c.125-.128.26-.22.406-.273A1.35 1.35 0 0 1 12 2c.167 0 .323.027.469.08.146.054.281.145.406.273l4.5 4.623c.25.257.37.556.36.899-.011.342-.13.642-.36.899-.25.256-.547.39-.89.4a1.142 1.142 0 0 1-.891-.368L13.25 6.398v9.181c0 .364-.12.67-.36.915-.239.247-.536.37-.89.37s-.651-.123-.89-.37a1.26 1.26 0 0 1-.36-.915V6.398Z"/>
</svg>
