<svg xmlns="http://www.w3.org/2000/svg" width="24" height="24" fill="currentColor" viewBox="0 0 24 24">
  <path d="M8 20h8v-3c0-1.1-.392-2.042-1.175-2.825C14.042 13.392 13.1 13 12 13s-2.042.392-2.825 1.175C8.392 14.958 8 15.9 8 17v3Zm4-9c1.1 0 2.042-.392 2.825-1.175C15.608 9.042 16 8.1 16 7V4H8v3c0 1.1.392 2.042 1.175 2.825C9.958 10.608 10.9 11 12 11ZM5 22a.967.967 0 0 1-.713-.288A.968.968 0 0 1 4 21a.97.97 0 0 1 .287-.712A.967.967 0 0 1 5 20h1v-3c0-1.017.237-1.97.713-2.863A5.572 5.572 0 0 1 8.7 12a5.572 5.572 0 0 1-1.987-2.137A5.998 5.998 0 0 1 6 7V4H5a.968.968 0 0 1-.713-.288A.968.968 0 0 1 4 3a.97.97 0 0 1 .287-.712A.968.968 0 0 1 5 2h14c.283 0 .52.096.712.288.192.191.288.429.288.712s-.096.52-.288.712A.968.968 0 0 1 19 4h-1v3c0 1.017-.238 1.97-.712 2.863A5.572 5.572 0 0 1 15.3 12a5.572 5.572 0 0 1 1.988 2.137A6.01 6.01 0 0 1 18 17v3h1c.283 0 .52.096.712.288.192.191.288.429.288.712s-.096.52-.288.712A.968.968 0 0 1 19 22H5Z"/>
</svg>
