<svg xmlns="http://www.w3.org/2000/svg" width="24" height="24" fill="currentColor" viewBox="0 0 24 24">
  <path d="M6 20h12V10H6v10Zm6-3c.55 0 1.02-.196 1.412-.587.392-.392.588-.863.588-1.413s-.196-1.02-.588-1.412A1.926 1.926 0 0 0 12 13c-.55 0-1.02.196-1.412.588A1.926 1.926 0 0 0 10 15c0 .55.196 1.02.588 1.413.391.391.862.587 1.412.587Zm-6 5c-.55 0-1.02-.196-1.412-.587A1.926 1.926 0 0 1 4 20V10c0-.55.196-1.02.588-1.412A1.926 1.926 0 0 1 6 8h7V6c0-1.383.488-2.563 1.463-3.538C15.438 1.487 16.617 1 18 1c1.183 0 2.217.358 3.1 1.075a5.041 5.041 0 0 1 1.75 2.7c.083.283.03.558-.163.825-.191.267-.42.4-.687.4-.283 0-.517-.058-.7-.175-.183-.117-.317-.308-.4-.575a3.185 3.185 0 0 0-1.063-1.6A2.8 2.8 0 0 0 18 3c-.833 0-1.542.292-2.125.875A2.893 2.893 0 0 0 15 6v2h3c.55 0 1.02.196 1.413.588.391.391.587.862.587 1.412v10c0 .55-.196 1.02-.587 1.413A1.926 1.926 0 0 1 18 22H6Z"/>
</svg>
