<svg xmlns="http://www.w3.org/2000/svg" width="24" height="24" fill="currentColor" viewBox="0 0 24 24">
  <path d="M4.694 22.272c-.625 0-1.16-.218-1.605-.653a2.116 2.116 0 0 1-.668-1.57V4.495c0-.61.223-1.134.668-1.57.445-.434.98-.652 1.605-.652h6.818c.322 0 .592.107.81.32.218.212.327.476.327.791 0 .315-.11.579-.327.792-.218.213-.488.32-.81.32H4.694V20.05h6.818c.322 0 .592.106.81.32.218.212.327.476.327.79 0 .316-.11.58-.327.793a1.113 1.113 0 0 1-.81.319H4.694Zm13.835-8.889h-8.153a1.11 1.11 0 0 1-.81-.32 1.063 1.063 0 0 1-.326-.791c0-.315.108-.579.326-.792.218-.213.488-.32.81-.32h8.153L16.4 9.079a1.008 1.008 0 0 1-.313-.75c0-.297.104-.556.313-.778.208-.222.473-.338.795-.347.322-.01.597.097.824.319l4.063 3.972a1.054 1.054 0 0 1 0 1.556l-4.063 3.972a1.07 1.07 0 0 1-.81.32 1.171 1.171 0 0 1-.81-.348 1.067 1.067 0 0 1-.298-.791c.01-.306.119-.56.327-.764l2.102-2.056Z"/>
</svg>
