<svg xmlns="http://www.w3.org/2000/svg" width="24" height="24" fill="currentColor" viewBox="0 0 24 24">
  <path d="M3.111 18.333c-.315 0-.579-.106-.792-.32a1.075 1.075 0 0 1-.319-.79c0-.316.106-.58.32-.792.212-.213.476-.32.791-.32H20.89c.315 0 .579.107.792.32.212.212.319.476.319.791 0 .315-.107.579-.32.792-.212.213-.476.32-.791.32H3.11Zm0-5.555c-.315 0-.579-.107-.792-.32A1.075 1.075 0 0 1 2 11.667c0-.315.106-.579.32-.792.212-.213.476-.32.791-.32H20.89c.315 0 .579.107.792.32.212.213.319.477.319.792 0 .315-.107.578-.32.791-.212.213-.476.32-.791.32H3.11Zm0-5.556c-.315 0-.579-.106-.792-.32A1.075 1.075 0 0 1 2 6.113c0-.316.106-.58.32-.793.212-.213.476-.319.791-.319H20.89c.315 0 .579.106.792.32.212.212.319.476.319.791 0 .315-.107.579-.32.792-.212.213-.476.32-.791.32H3.11Z"/>
</svg>
