<svg xmlns="http://www.w3.org/2000/svg" width="24" height="24" fill="currentColor" viewBox="0 0 24 24">
  <path d="M4.5 15a2.407 2.407 0 0 1-1.766-.734A2.407 2.407 0 0 1 2 12.5c0-.688.245-1.276.734-1.766A2.407 2.407 0 0 1 4.5 10a2.41 2.41 0 0 1 1.766.734c.49.49.734 1.079.734 1.766a2.41 2.41 0 0 1-.734 1.766c-.49.49-1.079.734-1.766.734Zm7.5 0a2.407 2.407 0 0 1-1.766-.734A2.407 2.407 0 0 1 9.5 12.5c0-.688.245-1.276.734-1.766A2.407 2.407 0 0 1 12 10a2.41 2.41 0 0 1 1.766.734c.49.49.734 1.079.734 1.766a2.41 2.41 0 0 1-.734 1.766c-.49.49-1.079.734-1.766.734Zm7.5 0a2.407 2.407 0 0 1-1.766-.734A2.407 2.407 0 0 1 17 12.5c0-.688.245-1.276.734-1.766A2.407 2.407 0 0 1 19.5 10a2.41 2.41 0 0 1 1.766.734c.49.49.734 1.079.734 1.766a2.41 2.41 0 0 1-.734 1.766c-.49.49-1.078.734-1.766.734Z"/>
</svg>
