<svg xmlns="http://www.w3.org/2000/svg" width="24" height="24" fill="currentColor" viewBox="0 0 24 24">
  <path d="M12 22c-.315 0-.579-.107-.792-.32a1.075 1.075 0 0 1-.32-.791v-4.445c0-.314.107-.578.32-.791.213-.213.477-.32.792-.32.315 0 .579.107.792.32.213.213.32.477.32.791v1.112h7.777c.315 0 .579.106.792.319.212.213.319.477.319.792 0 .314-.107.578-.32.791-.212.213-.476.32-.791.32H13.11v1.11c0 .316-.106.58-.32.793a1.075 1.075 0 0 1-.791.319Zm-8.889-2.222c-.315 0-.579-.107-.792-.32A1.075 1.075 0 0 1 2 18.667c0-.315.106-.579.32-.792.212-.213.476-.32.791-.32h4.445c.314 0 .578.107.791.32.213.213.32.477.32.792 0 .314-.107.578-.32.791-.213.213-.477.32-.791.32H3.11Zm4.445-4.445a1.07 1.07 0 0 1-.792-.32 1.075 1.075 0 0 1-.32-.79V13.11H3.111c-.315 0-.579-.106-.792-.32A1.075 1.075 0 0 1 2 12c0-.315.106-.579.32-.792.212-.213.476-.32.791-.32h3.333v-1.11c0-.315.107-.579.32-.792.213-.213.477-.32.792-.32.314 0 .578.107.791.32.213.213.32.477.32.792v4.444c0 .315-.107.579-.32.792-.213.213-.477.32-.791.32ZM12 13.111c-.315 0-.579-.106-.792-.32a1.075 1.075 0 0 1-.32-.791c0-.315.107-.579.32-.792.213-.213.477-.32.792-.32h8.889c.315 0 .579.107.792.32.212.213.319.477.319.792 0 .315-.107.579-.32.792-.212.213-.476.32-.791.32H12Zm4.444-4.444c-.314 0-.578-.107-.791-.32a1.075 1.075 0 0 1-.32-.791V3.11c0-.315.107-.579.32-.792.213-.213.477-.319.791-.319.315 0 .58.106.792.32.213.212.32.476.32.791v1.111h3.333c.315 0 .579.107.792.32.212.213.319.477.319.791 0 .315-.107.579-.32.792-.212.213-.476.32-.791.32h-3.333v1.11c0 .315-.107.58-.32.792-.213.213-.477.32-.792.32ZM3.111 6.444c-.315 0-.579-.106-.792-.319A1.075 1.075 0 0 1 2 5.333c0-.314.106-.578.32-.791.212-.213.476-.32.791-.32H12c.315 0 .579.107.792.32.213.213.32.477.32.791 0 .315-.107.579-.32.792-.213.213-.477.32-.792.32H3.111Z"/>
</svg>
