<svg xmlns="http://www.w3.org/2000/svg" width="24" height="24" fill="currentColor" viewBox="0 0 24 24">
  <path d="M22 12c0 .315-.107.579-.32.792-.212.213-.476.32-.791.32h-4.445c-.314 0-.578-.107-.791-.32a1.075 1.075 0 0 1-.32-.792c0-.315.107-.579.32-.792.213-.213.477-.32.791-.32h1.112V3.112c0-.315.106-.579.319-.792.213-.213.477-.319.792-.319.314 0 .578.106.791.32.213.212.32.476.32.791v7.778h1.11c.316 0 .58.106.793.32.212.212.319.476.319.791Zm-2.222 8.889c0 .315-.107.579-.32.792a1.077 1.077 0 0 1-.791.319c-.315 0-.579-.107-.792-.32a1.075 1.075 0 0 1-.32-.791v-4.445c0-.314.107-.578.32-.791.213-.213.477-.32.792-.32.314 0 .578.107.791.32.213.213.32.477.32.791v4.445Zm-4.445-4.445c0 .315-.106.58-.32.792-.212.213-.476.32-.79.32H13.11v3.333c0 .315-.106.579-.32.792a1.075 1.075 0 0 1-.791.319c-.315 0-.579-.107-.792-.32a1.075 1.075 0 0 1-.32-.791v-3.333h-1.11c-.315 0-.579-.107-.792-.32a1.075 1.075 0 0 1-.32-.792c0-.314.107-.578.32-.791.213-.213.477-.32.792-.32h4.444c.315 0 .579.107.792.32.213.213.32.477.32.791ZM13.111 12c0 .315-.106.579-.32.792-.212.213-.476.32-.791.32-.315 0-.579-.107-.792-.32a1.075 1.075 0 0 1-.32-.792V3.111c0-.315.107-.579.32-.792.213-.213.477-.319.792-.319.315 0 .579.106.792.32.213.212.32.476.32.791V12ZM8.667 7.556c0 .314-.107.578-.32.791-.213.213-.477.32-.791.32H3.11c-.315 0-.579-.107-.792-.32A1.075 1.075 0 0 1 2 7.556c0-.315.106-.58.32-.792.212-.213.476-.32.791-.32h1.111V3.111c0-.315.107-.579.32-.792.213-.213.477-.319.791-.319.315 0 .579.106.792.32.213.212.32.476.32.791v3.333h1.11c.315 0 .58.107.792.32.213.213.32.477.32.792ZM6.444 20.889c0 .315-.106.579-.319.792a1.079 1.079 0 0 1-.792.319c-.314 0-.578-.107-.791-.32a1.075 1.075 0 0 1-.32-.791V12c0-.315.107-.579.32-.792.213-.213.477-.32.791-.32.315 0 .579.107.792.32.213.213.32.477.32.792v8.889Z"/>
</svg>
