<svg xmlns="http://www.w3.org/2000/svg" width="24" height="24" fill="currentColor" viewBox="0 0 24 24">
  <path d="M10.571 13.429H3.43c-.405 0-.744-.137-1.018-.411A1.382 1.382 0 0 1 2 12c0-.405.137-.744.41-1.018.275-.274.614-.41 1.019-.41h7.142V3.428c0-.405.137-.744.411-1.018.274-.273.613-.41 1.018-.41s.744.137 1.018.41c.274.275.41.614.41 1.019v7.142h7.143c.405 0 .744.137 1.018.411.274.274.411.613.411 1.018s-.137.744-.41 1.018c-.274.274-.614.41-1.019.41H13.43v7.143c0 .405-.137.744-.411 1.018-.274.274-.613.411-1.018.411s-.744-.137-1.018-.41a1.382 1.382 0 0 1-.41-1.019V13.43Z"/>
</svg>
