<svg xmlns="http://www.w3.org/2000/svg" width="24" height="24" fill="currentColor" viewBox="0 0 24 24">
  <path d="M8 21c-.55 0-1.02-.196-1.412-.587A1.926 1.926 0 0 1 6 19v-2H4c-.55 0-1.02-.196-1.413-.587A1.926 1.926 0 0 1 2 15v-4c0-.85.292-1.563.875-2.137C3.458 8.288 4.167 8 5 8h14c.85 0 1.563.287 2.137.863.575.575.863 1.287.863 2.137v4c0 .55-.196 1.02-.587 1.413A1.926 1.926 0 0 1 20 17h-2v2c0 .55-.196 1.02-.587 1.413A1.926 1.926 0 0 1 16 21H8Zm-4-6h2c0-.55.196-1.02.588-1.412A1.926 1.926 0 0 1 8 13h8c.55 0 1.02.196 1.413.588.391.391.587.862.587 1.412h2v-4a.968.968 0 0 0-.288-.713A.968.968 0 0 0 19 10H5a.967.967 0 0 0-.713.287A.968.968 0 0 0 4 11v4Zm12-7V5H8v3H6V5c0-.55.196-1.02.588-1.413A1.926 1.926 0 0 1 8 3h8c.55 0 1.02.196 1.413.587.39.393.587.863.587 1.413v3h-2Zm2 4.5a.97.97 0 0 0 .712-.287A.968.968 0 0 0 19 11.5a.968.968 0 0 0-.288-.713A.968.968 0 0 0 18 10.5a.968.968 0 0 0-.712.287.968.968 0 0 0-.288.713c0 .283.096.52.288.713A.968.968 0 0 0 18 12.5ZM16 19v-4H8v4h8Z"/>
</svg>
