<svg xmlns="http://www.w3.org/2000/svg" width="24" height="24" fill="currentColor" viewBox="0 0 24 24">
  <path d="M12 22c-2.792 0-5.156-.969-7.094-2.906C2.97 17.156 2 14.792 2 12c0-2.792.969-5.156 2.906-7.094C6.844 2.97 9.208 2 12 2c1.438 0 2.813.297 4.125.89A9.528 9.528 0 0 1 19.5 5.438V3.25c0-.354.12-.651.36-.89.239-.24.536-.36.89-.36s.651.12.89.36c.24.239.36.536.36.89V9.5c0 .354-.12.651-.36.89-.239.24-.536.36-.89.36H14.5a1.21 1.21 0 0 1-.89-.36 1.21 1.21 0 0 1-.36-.89c0-.354.12-.651.36-.89.239-.24.536-.36.89-.36h4a7.296 7.296 0 0 0-2.734-2.75A7.409 7.409 0 0 0 12 4.5c-2.083 0-3.854.73-5.313 2.188C5.23 8.146 4.5 9.916 4.5 12s.73 3.854 2.188 5.313C8.146 18.77 9.916 19.5 12 19.5c1.417 0 2.713-.36 3.89-1.078a7.441 7.441 0 0 0 2.735-2.89c.167-.292.401-.495.703-.61.302-.115.61-.12.922-.016.333.104.573.323.719.656.146.334.135.646-.032.938-.854 1.667-2.072 3-3.656 4-1.583 1-3.343 1.5-5.281 1.5Z"/>
</svg>
