<svg xmlns="http://www.w3.org/2000/svg" width="24" height="24" fill="currentColor" viewBox="0 0 24 24">
  <path d="M9.397 16.794c-2.067 0-3.817-.716-5.249-2.148C2.716 13.214 2 11.464 2 9.396c0-2.066.716-3.816 2.148-5.248C5.58 2.716 7.33 2 9.397 2c2.067 0 3.817.716 5.249 2.148 1.432 1.432 2.148 3.182 2.148 5.249a6.937 6.937 0 0 1-1.48 4.324l6.373 6.373c.209.208.313.474.313.796 0 .323-.104.588-.313.797a1.08 1.08 0 0 1-.796.313c-.323 0-.588-.104-.797-.313l-6.373-6.373a6.937 6.937 0 0 1-4.324 1.48Zm0-2.276c1.422 0 2.632-.498 3.627-1.494.996-.995 1.494-2.205 1.494-3.627 0-1.423-.498-2.632-1.494-3.627-.995-.996-2.205-1.494-3.627-1.494-1.423 0-2.632.498-3.627 1.494-.996.995-1.494 2.204-1.494 3.627 0 1.422.498 2.631 1.494 3.627.995.996 2.204 1.494 3.627 1.494Z"/>
</svg>
