<svg xmlns="http://www.w3.org/2000/svg" width="24" height="24" fill="currentColor" viewBox="0 0 24 24">
  <path d="M10.076 22a.973.973 0 0 1-.667-.25.989.989 0 0 1-.333-.625L8.768 18.8a3.932 3.932 0 0 1-.629-.3 8.504 8.504 0 0 1-.577-.375l-2.232.9c-.239.1-.478.113-.718.038a1.005 1.005 0 0 1-.564-.438L2.15 15.4a.92.92 0 0 1-.129-.7c.052-.25.18-.45.385-.6l1.924-1.425a2.329 2.329 0 0 1-.026-.338v-.675c0-.108.009-.22.026-.337L2.406 9.9a.957.957 0 0 1-.385-.6.92.92 0 0 1 .129-.7l1.898-3.225a1.01 1.01 0 0 1 .564-.438 1.02 1.02 0 0 1 .718.038l2.232.9c.188-.133.385-.258.59-.375a5.22 5.22 0 0 1 .616-.3l.308-2.325a.989.989 0 0 1 .333-.625.973.973 0 0 1 .667-.25h3.848c.257 0 .48.083.667.25a.99.99 0 0 1 .334.625l.307 2.325c.223.083.432.183.629.3.197.117.39.242.577.375l2.232-.9c.24-.1.479-.112.718-.037.24.075.428.22.565.437L21.85 8.6a.92.92 0 0 1 .128.7.958.958 0 0 1-.384.6l-1.924 1.425c.017.117.025.23.025.338v.675c0 .108-.017.22-.051.337l1.924 1.425c.205.15.333.35.385.6a.92.92 0 0 1-.129.7l-1.898 3.2c-.137.217-.33.367-.577.45a1.007 1.007 0 0 1-.731-.025l-2.18-.9a7.031 7.031 0 0 1-.59.375 5.136 5.136 0 0 1-.617.3l-.307 2.325a.989.989 0 0 1-.334.625.973.973 0 0 1-.667.25h-3.848Zm.898-2h2.027l.359-2.65a5.838 5.838 0 0 0 1.475-.588c.453-.258.868-.57 1.244-.937l2.54 1.025 1-1.7-2.206-1.625c.085-.233.145-.48.18-.738a5.993 5.993 0 0 0 0-1.575 3.454 3.454 0 0 0-.18-.737l2.206-1.625-1-1.7-2.54 1.05a5.68 5.68 0 0 0-2.72-1.55L13.027 4H11l-.36 2.65c-.53.133-1.021.33-1.474.587a6.133 6.133 0 0 0-1.245.938L5.381 7.15l-1 1.7 2.206 1.6c-.085.25-.145.5-.18.75a5.91 5.91 0 0 0-.05.8c0 .267.017.525.05.775.035.25.095.5.18.75L4.381 15.15l1 1.7 2.54-1.05a5.678 5.678 0 0 0 2.72 1.55l.333 2.65Zm1.078-4.5c.992 0 1.838-.342 2.54-1.025.7-.683 1.051-1.508 1.051-2.475 0-.967-.35-1.792-1.052-2.475-.701-.683-1.547-1.025-2.54-1.025-1.008 0-1.86.342-2.552 1.025-.693.683-1.039 1.508-1.039 2.475 0 .967.346 1.792 1.04 2.475.692.683 1.543 1.025 2.552 1.025Z"/>
</svg>
