<svg xmlns="http://www.w3.org/2000/svg" width="24" height="24" fill="currentColor" viewBox="0 0 24 24">
  <path d="M8.832 13.044c-.3 0-.55-.1-.753-.3A1.005 1.005 0 0 1 7.776 12V5.55l-1.98 1.96a.99.99 0 0 1-.726.286c-.29 0-.542-.095-.753-.287A1.011 1.011 0 0 1 4 6.765c0-.287.106-.535.317-.744l3.776-3.734a.928.928 0 0 1 .343-.222A1.18 1.18 0 0 1 8.832 2c.14 0 .273.022.396.065a.928.928 0 0 1 .343.222l3.802 3.76a.951.951 0 0 1 .304.731 1.046 1.046 0 0 1-.33.731 1.12 1.12 0 0 1-.74.3.973.973 0 0 1-.739-.3l-1.98-1.958V12c0 .296-.101.544-.304.744-.202.2-.453.3-.752.3ZM15.169 22c-.141 0-.273-.022-.396-.065a.928.928 0 0 1-.344-.222l-3.802-3.76a.952.952 0 0 1-.303-.731c.008-.279.119-.522.33-.731a1.12 1.12 0 0 1 .739-.3.973.973 0 0 1 .74.3l1.98 1.958V12c0-.296.1-.544.303-.744.202-.2.453-.3.753-.3.299 0 .55.1.752.3.203.2.304.448.304.744v6.45l1.98-1.96a.99.99 0 0 1 .726-.286c.29 0 .541.095.752.287.212.209.317.457.317.744s-.105.535-.317.744l-3.775 3.734a.928.928 0 0 1-.343.222 1.18 1.18 0 0 1-.396.065Z"/>
</svg>
