<svg xmlns="http://www.w3.org/2000/svg" width="24" height="24" fill="currentColor" viewBox="0 0 24 24">
  <path d="M7.905 18.061 12 15.591l4.095 2.502-1.073-4.68 3.607-3.119-4.744-.422L12 5.452 10.115 9.84l-4.744.423 3.607 3.152-1.073 4.647ZM12 17.884l-5.057 3.05a.935.935 0 0 1-.566.138 1.028 1.028 0 0 1-.514-.191 1.092 1.092 0 0 1-.355-.431.842.842 0 0 1-.04-.59l1.342-5.74-4.464-3.865a.958.958 0 0 1-.319-.503.912.912 0 0 1 .036-.557c.07-.18.171-.327.303-.44.132-.115.312-.19.54-.225l5.892-.515 2.287-5.422a.883.883 0 0 1 .379-.447 1.065 1.065 0 0 1 1.072 0c.17.097.296.246.379.447l2.287 5.422 5.892.515c.228.035.408.11.54.224a1.1 1.1 0 0 1 .303.441.91.91 0 0 1 .036.556.958.958 0 0 1-.319.504L17.19 14.12l1.343 5.742a.842.842 0 0 1-.04.588 1.092 1.092 0 0 1-.355.432c-.153.11-.325.173-.514.19a.936.936 0 0 1-.566-.138L12 17.883Z"/>
</svg>
