<svg xmlns="http://www.w3.org/2000/svg" width="24" height="24" fill="currentColor" viewBox="0 0 24 24">
  <path d="m12 18.002-4.847 2.92a1.062 1.062 0 0 1-.672.175 1.13 1.13 0 0 1-.613-.234 1.4 1.4 0 0 1-.409-.51 1.021 1.021 0 0 1-.058-.687l1.285-5.519-4.293-3.708a1.119 1.119 0 0 1-.321-1.256c.078-.214.195-.389.35-.525.156-.137.37-.224.643-.263l5.665-.497 2.19-5.197c.097-.234.248-.409.452-.526.205-.117.414-.175.628-.175.214 0 .423.058.628.175.204.117.355.292.452.526l2.19 5.197 5.665.497c.273.039.487.126.643.263.155.136.272.311.35.525a1.118 1.118 0 0 1-.321 1.256l-4.293 3.708 1.285 5.52c.059.252.04.481-.058.685a1.401 1.401 0 0 1-.409.511 1.13 1.13 0 0 1-.613.234 1.061 1.061 0 0 1-.672-.175L12 18.002Z"/>
</svg>
