<svg xmlns="http://www.w3.org/2000/svg" width="24" height="24" fill="currentColor" viewBox="0 0 24 24">
  <path d="M6.333 22a2.14 2.14 0 0 1-1.57-.653 2.14 2.14 0 0 1-.652-1.57V5.334c-.315 0-.579-.106-.792-.32A1.075 1.075 0 0 1 3 4.224c0-.316.106-.58.32-.792.212-.213.476-.32.791-.32h4.445c0-.315.106-.579.319-.792.213-.213.477-.319.792-.319h4.444c.315 0 .579.106.792.32.213.212.32.476.32.791h4.444c.314 0 .578.107.791.32.213.213.32.476.32.791 0 .315-.107.579-.32.792-.213.213-.476.32-.791.32v14.444a2.14 2.14 0 0 1-.653 1.57 2.14 2.14 0 0 1-1.57.652H6.334ZM17.444 5.333H6.334v14.445h11.11V5.333ZM8.556 17.556h2.222v-10H8.556v10Zm4.444 0h2.222v-10H13v10Z"/>
</svg>
