<svg xmlns="http://www.w3.org/2000/svg" width="24" height="24" fill="currentColor" viewBox="0 0 24 24">
  <path d="M2 17.333V6.223c0-.612.218-1.135.653-1.57A2.14 2.14 0 0 1 4.223 4h15.555a2.14 2.14 0 0 1 1.57.653c.434.435.652.958.652 1.57v11.11a2.14 2.14 0 0 1-.653 1.57 2.14 2.14 0 0 1-1.57.653H4.223a2.14 2.14 0 0 1-1.57-.653A2.14 2.14 0 0 1 2 17.333Zm2.222-8.889h2.222V6.222H4.222v2.222Zm4.445 0h11.11V6.222H8.668v2.222Zm0 4.445h11.11v-2.222H8.668v2.222Zm0 4.444h11.11v-2.222H8.668v2.222Zm-4.445 0h2.222v-2.222H4.222v2.222Zm0-4.444h2.222v-2.222H4.222v2.222Z"/>
</svg>
