<svg xmlns="http://www.w3.org/2000/svg" width="24" height="24" fill="currentColor" viewBox="0 0 24 24">
  <path d="M4.222 10.889a2.14 2.14 0 0 1-1.57-.653A2.14 2.14 0 0 1 2 8.666V4.223c0-.61.218-1.134.653-1.57A2.14 2.14 0 0 1 4.223 2h4.444a2.14 2.14 0 0 1 1.57.653c.434.435.652.958.652 1.57v4.444a2.14 2.14 0 0 1-.653 1.57 2.14 2.14 0 0 1-1.57.652H4.223Zm0 11.111a2.14 2.14 0 0 1-1.57-.653A2.14 2.14 0 0 1 2 19.777v-4.444c0-.61.218-1.134.653-1.57a2.14 2.14 0 0 1 1.57-.652h4.444a2.14 2.14 0 0 1 1.57.653c.434.435.652.958.652 1.57v4.444a2.14 2.14 0 0 1-.653 1.57 2.14 2.14 0 0 1-1.57.652H4.223Zm11.111-11.111a2.14 2.14 0 0 1-1.57-.653 2.14 2.14 0 0 1-.652-1.57V4.223c0-.61.218-1.134.653-1.57A2.14 2.14 0 0 1 15.334 2h4.444a2.14 2.14 0 0 1 1.57.653c.434.435.652.958.652 1.57v4.444a2.14 2.14 0 0 1-.653 1.57 2.14 2.14 0 0 1-1.57.652h-4.444Zm0 11.111a2.14 2.14 0 0 1-1.57-.653 2.14 2.14 0 0 1-.652-1.57v-4.444c0-.61.218-1.134.653-1.57a2.14 2.14 0 0 1 1.57-.652h4.444a2.14 2.14 0 0 1 1.57.653c.434.435.652.958.652 1.57v4.444a2.14 2.14 0 0 1-.653 1.57 2.14 2.14 0 0 1-1.57.652h-4.444ZM4.223 8.667h4.444V4.222H4.222v4.445Zm11.11 0h4.445V4.222h-4.445v4.445Zm0 11.11h4.445v-4.444h-4.445v4.445Zm-11.11 0h4.444v-4.444H4.222v4.445Z"/>
</svg>
