<svg xmlns="http://www.w3.org/2000/svg" width="24" height="24" fill="currentColor" viewBox="0 0 24 24">
  <path d="M12 16.189c1.165 0 2.156-.408 2.972-1.224.816-.816 1.224-1.806 1.224-2.972 0-1.165-.408-2.156-1.224-2.972-.816-.816-1.806-1.224-2.972-1.224-1.165 0-2.156.408-2.972 1.224-.816.816-1.224 1.806-1.224 2.972 0 1.165.408 2.156 1.224 2.972.816.816 1.806 1.224 2.972 1.224Zm0-1.678c-.7 0-1.294-.245-1.783-.735a2.428 2.428 0 0 1-.734-1.783c0-.7.244-1.294.734-1.783A2.428 2.428 0 0 1 12 9.476c.7 0 1.294.244 1.783.734.49.49.735 1.084.735 1.783 0 .7-.245 1.294-.735 1.783-.49.49-1.084.735-1.783.735Zm0 4.475c-2.082 0-3.982-.56-5.7-1.678a12.057 12.057 0 0 1-4.067-4.43 1.78 1.78 0 0 1-.175-1.34c.04-.147.097-.29.175-.43a12.057 12.057 0 0 1 4.068-4.43C8.018 5.56 9.918 5 12 5s3.982.56 5.7 1.678a12.057 12.057 0 0 1 4.067 4.43 1.776 1.776 0 0 1 .175 1.34 1.86 1.86 0 0 1-.175.43 12.057 12.057 0 0 1-4.068 4.43c-1.717 1.119-3.617 1.678-5.699 1.678Zm0-1.865a8.9 8.9 0 0 0 4.837-1.387 9.113 9.113 0 0 0 3.368-3.741 9.112 9.112 0 0 0-3.368-3.741A8.9 8.9 0 0 0 12 6.865a8.9 8.9 0 0 0-4.837 1.387 9.112 9.112 0 0 0-3.368 3.741 9.113 9.113 0 0 0 3.368 3.741A8.9 8.9 0 0 0 12 17.121Z"/>
</svg>
