<svg xmlns="http://www.w3.org/2000/svg" width="24" height="24" fill="currentColor" viewBox="0 0 24 24">
  <path d="m15.782 12.35-1.346-1.345c.17-.82-.042-1.52-.638-2.1-.595-.58-1.31-.808-2.146-.685l-1.346-1.345a3.877 3.877 0 0 1 1.67-.372c1.16 0 2.147.407 2.959 1.219.812.812 1.218 1.798 1.218 2.958a3.875 3.875 0 0 1-.371 1.67Zm2.97 2.924-1.346-1.3a10.003 10.003 0 0 0 1.578-1.496 8.37 8.37 0 0 0 1.16-1.798 9.07 9.07 0 0 0-3.353-3.724 8.858 8.858 0 0 0-4.814-1.38c-.449 0-.886.03-1.311.092a9.842 9.842 0 0 0-1.288.279L7.94 4.508a10.682 10.682 0 0 1 4.037-.789c2.119 0 4.056.557 5.812 1.67 1.755 1.114 3.097 2.615 4.025 4.502a1.746 1.746 0 0 1 .186.789c0 .139-.012.274-.035.406a1.425 1.425 0 0 1-.127.383 9.327 9.327 0 0 1-1.3 2.1 10.079 10.079 0 0 1-1.786 1.705Zm-6.775 2.366c-2.073 0-3.968-.56-5.685-1.682a12.06 12.06 0 0 1-4.06-4.42 1.465 1.465 0 0 1-.174-.406A1.771 1.771 0 0 1 2 10.68c0-.155.015-.302.046-.441a1.54 1.54 0 0 1 .163-.418c.31-.618.669-1.21 1.079-1.775A9.48 9.48 0 0 1 4.69 6.503L2.766 4.555a.903.903 0 0 1-.244-.662.907.907 0 0 1 .267-.638.88.88 0 0 1 .65-.255.88.88 0 0 1 .65.255l15.776 15.777c.17.17.26.383.267.639a.864.864 0 0 1-.267.66.88.88 0 0 1-.65.256.88.88 0 0 1-.649-.255l-3.248-3.202a11.052 11.052 0 0 1-3.341.51ZM5.99 7.803a9.966 9.966 0 0 0-1.23 1.322c-.371.48-.688.998-.951 1.555a9.07 9.07 0 0 0 3.352 3.724 8.858 8.858 0 0 0 4.815 1.38c.31 0 .61-.02.905-.058.294-.039.595-.081.905-.127l-.836-.882a4.27 4.27 0 0 1-.487.104 3.283 3.283 0 0 1-.487.035c-1.16 0-2.146-.406-2.958-1.218C8.206 12.826 7.8 11.84 7.8 10.68c0-.17.012-.333.035-.487a4.09 4.09 0 0 1 .105-.488L5.99 7.803Z"/>
</svg>
